<?xml version="1.0" encoding="UTF-8" standalone="no"?><svg xmlns="http://www.w3.org/2000/svg" xmlns:xlink="http://www.w3.org/1999/xlink" data-name="Layer 2" id="Layer_2" viewBox="0 0 51.25 51.25">
  <defs>
    <style>
      .cls-1 {
        fill: url(#linear-gradient);
      }

      .cls-2 {
        fill: url(#linear-gradient-3);
      }

      .cls-3 {
        fill: url(#linear-gradient-2);
      }
    </style>
    <linearGradient gradientTransform="translate(0 228.11) scale(1 -1)" gradientUnits="userSpaceOnUse" id="linear-gradient" x1="7.57" x2="45.43" y1="186.12" y2="220.41">
      <stop offset="0" stop-color="#00b4eb"/>
      <stop offset="1" stop-color="#18ffff"/>
    </linearGradient>
    <linearGradient id="linear-gradient-2" x1="13.95" x2="18.93" xlink:href="#linear-gradient" y1="195.82" y2="200.34"><stop offset="0" stop-color="#00b4eb"/><stop offset="1" stop-color="#18ffff"/></linearGradient>
    <linearGradient id="linear-gradient-3" x1="32.17" x2="37.15" xlink:href="#linear-gradient" y1="195.82" y2="200.34"><stop offset="0" stop-color="#00b4eb"/><stop offset="1" stop-color="#18ffff"/></linearGradient>
  </defs>
  <g data-name="Layer 2" id="Layer_2-2">
    <g>
      <path class="cls-1" d="M50.9,21.44c-.11-.65-.24-1.29-.39-1.92-.1-.42-.22-.84-.34-1.26-.36-1.19-.8-2.35-1.32-3.46h0c-.31-.66-.64-1.31-1-1.93h0c-.59-1.03-1.25-2.01-1.97-2.94-1.82-2.35-4.04-4.37-6.56-5.97-1.55-.98-3.21-1.8-4.96-2.43-1.58-.57-3.23-.99-4.94-1.25-.09-.03-.18-.04-.27-.04h0c-1.15-.16-2.32-.24-3.51-.24-3.13,0-6.13,.56-8.9,1.59-1.69,.63-3.3,1.43-4.8,2.38-2.61,1.65-4.89,3.76-6.75,6.21-.64,.85-1.23,1.73-1.77,2.66-.37,.64-.71,1.3-1.03,1.98-.48,1.02-.89,2.08-1.23,3.17-.75,2.41-1.16,4.98-1.16,7.64,0,14.15,11.47,25.62,25.63,25.62s25.62-11.47,25.62-25.62c0-1.43-.12-2.83-.34-4.19h-.01Zm-25.28,22.24c-10.67,0-19.33-5.66-19.33-12.65,0-2.75,1.35-5.3,3.63-7.38,.38-.35,.79-.69,1.23-1,.32-.24,.65-.47,1-.69,.81-.52,1.68-.98,2.62-1.4,1.95-.87,4.16-1.51,6.53-1.86,.83-.13,1.69-.21,2.56-.27,.58-.03,1.16-.05,1.76-.05,.67,0,1.34,.02,1.99,.07,.88,.06,1.74,.16,2.58,.29,2.44,.39,4.7,1.08,6.68,2.01,1.02,.48,1.97,1.02,2.82,1.62,.37,.26,.72,.52,1.06,.8,.43,.35,.83,.72,1.2,1.1,1.9,1.96,2.99,4.28,2.99,6.77,0,6.99-8.65,12.65-19.33,12.65h0ZM5.52,20.67c-.27-.25-.27-.66-.02-.92,.1-.11,.21-.22,.33-.33,.19-.18,.47-.23,.71-.13,.93,.41,1.85,.83,2.75,1.25,.09,.04,.17,.11,.23,.19,.05,.06,.1,.13,.15,.19-.7,.52-1.35,1.07-1.93,1.65-.8-.63-1.54-1.27-2.22-1.9Zm7.63-2.83c-.16-.08-.28-.22-.34-.38-.26-.7-.48-1.39-.67-2.09-.08-.3,.04-.61,.3-.78,.5-.32,1.02-.64,1.55-.97,.21-.13,.47-.14,.69-.03,.73,.37,1.46,.75,2.18,1.13,.19,.1,.33,.29,.36,.5,.11,.66,.25,1.32,.4,1.98-1.19,.32-2.33,.72-3.41,1.17-.35-.18-.7-.36-1.05-.53h-.01Zm6.27-2.5c-.04-.27,.09-.54,.33-.69,.56-.35,1.14-.7,1.73-1.06,.22-.13,.48-.13,.7-.01,.67,.38,1.34,.75,2,1.13,.21,.12,.34,.33,.35,.57,.02,.3,.03,.59,.05,.89-1.71,.05-3.37,.25-4.95,.56-.08-.46-.15-.93-.21-1.39Zm7.3-.03c0-.25,.13-.49,.34-.61,.63-.37,1.27-.74,1.91-1.11,.22-.12,.49-.12,.7,0,.62,.37,1.23,.73,1.82,1.09,.23,.14,.36,.39,.34,.65-.04,.48-.07,.95-.12,1.42-1.6-.32-3.27-.52-4.99-.57v-.87Zm12.35,.35c-.12,.56-.26,1.12-.41,1.68-.08,.3-.28,.55-.56,.7-.28,.15-.56,.3-.83,.45-1.1-.48-2.27-.89-3.5-1.23v-.07c.08-.56,.15-1.13,.22-1.69,.04-.37,.25-.69,.58-.87,.56-.3,1.12-.61,1.68-.91,.35-.19,.78-.17,1.12,.04,.4,.24,.79,.49,1.18,.73,.4,.25,.6,.73,.51,1.19v-.02Zm7.41,5.16c-.67,.77-1.4,1.53-2.21,2.3-.03,.03-.07,.05-.11,.07l-.04,.02c-.61-.67-1.29-1.31-2.04-1.9,.08-.12,.16-.24,.23-.37,.04-.06,.1-.12,.17-.15,.9-.45,1.82-.9,2.75-1.34,.16-.07,.34-.05,.47,.07,.27,.25,.53,.49,.76,.72,.16,.16,.16,.41,.02,.58Zm-2.35-7.28c.13-.06,.29-.05,.41,.02,.61,.38,1.2,.74,1.77,1.11,.16,.11,.24,.31,.17,.49-.26,.77-.58,1.54-.95,2.31-.04,.09-.12,.16-.2,.2-.91,.43-1.8,.86-2.68,1.3-.15,.07-.32,.05-.45-.05-.41-.32-.86-.66-1.32-.99-.15-.11-.21-.3-.16-.48,.26-.79,.49-1.59,.67-2.39,.03-.12,.11-.23,.22-.28,.84-.42,1.68-.84,2.52-1.24Zm-3.51-6.32c.13-.07,.29-.07,.41,0,.67,.38,1.33,.76,1.99,1.14h0c.2,.2,.39,.4,.57,.6,0,.8-.02,1.59-.09,2.39,0,.15-.1,.28-.23,.34-.8,.4-1.61,.8-2.41,1.21-.13,.07-.29,.06-.41-.02-.68-.41-1.38-.83-2.09-1.25-.14-.08-.22-.23-.21-.39,.05-.82,.07-1.65,.06-2.48,0-.16,.08-.3,.22-.38,.74-.4,1.47-.79,2.18-1.17h0Zm-1.39-1.96s-.1,.08-.15,.12c-.57,.32-1.15,.64-1.75,.97-.22,.12-.48,.12-.69,0-.7-.41-1.4-.82-2.1-1.23-.2-.12-.32-.32-.34-.55-.05-.65-.11-1.3-.18-1.95,1.85,.67,3.6,1.57,5.22,2.64h-.01Zm-5.7,1.83c.68,.39,1.36,.79,2.03,1.18,.21,.13,.35,.35,.35,.6,0,.74,0,1.49-.04,2.23,0,.24-.15,.47-.37,.58-.68,.37-1.37,.74-2.04,1.11-.22,.12-.48,.11-.69-.01-.63-.37-1.27-.75-1.91-1.12-.22-.13-.35-.36-.35-.61,0-.75,.02-1.5,.02-2.25,0-.25,.13-.49,.36-.61,.66-.37,1.31-.74,1.96-1.1,.22-.12,.48-.12,.7,0h-.02Zm-6.8-5c0-.24,.13-.46,.33-.59,.15-.09,.3-.19,.45-.28h0c1.45,.11,2.87,.35,4.24,.7,.03,.06,.04,.13,.05,.2,.06,.78,.11,1.56,.15,2.33,.02,.26-.12,.51-.34,.64-.62,.36-1.25,.73-1.89,1.1-.22,.12-.49,.12-.7,0-.66-.38-1.31-.77-1.96-1.15-.22-.13-.35-.36-.34-.61,0-.78,.02-1.56,.02-2.34h-.01Zm-.83,4.95c.66,.38,1.32,.76,1.98,1.14,.22,.12,.35,.36,.35,.61v2.26c0,.25-.14,.48-.35,.6-.66,.38-1.31,.75-1.95,1.12-.21,.13-.48,.13-.7,0-.66-.38-1.33-.75-2-1.12-.22-.12-.35-.35-.36-.59-.02-.75-.02-1.5-.02-2.26,0-.25,.13-.48,.35-.6,.67-.39,1.34-.77,2-1.16,.22-.13,.48-.13,.7,0Zm-6.67-2.51c.07-.77,.16-1.53,.27-2.3,.02-.13,.07-.25,.15-.35,1.33-.34,2.71-.56,4.12-.67,.16,.1,.31,.2,.47,.3,.22,.13,.34,.38,.33,.63-.04,.78-.07,1.56-.1,2.33,0,.24-.14,.46-.34,.58-.67,.4-1.35,.8-2.03,1.19-.21,.13-.48,.13-.7,0-.61-.35-1.22-.7-1.82-1.04-.24-.14-.38-.4-.35-.67Zm-.97,2.64c.64,.35,1.28,.71,1.93,1.06,.22,.13,.36,.36,.36,.62,0,.74,0,1.47,.03,2.21,0,.26-.12,.5-.34,.63-.63,.37-1.25,.74-1.86,1.11-.21,.13-.47,.13-.69,.02-.7-.37-1.39-.73-2.09-1.1-.22-.11-.36-.33-.38-.57-.04-.73-.06-1.45-.06-2.18,0-.25,.14-.47,.35-.6,.68-.4,1.37-.79,2.06-1.19,.21-.12,.47-.13,.69,0h0Zm-.96-4.58c-.13,.72-.23,1.43-.32,2.15-.02,.2-.14,.38-.31,.48-.74,.43-1.48,.86-2.22,1.28-.2,.11-.43,.11-.63,0-.59-.32-1.17-.63-1.73-.93-.09-.05-.17-.12-.23-.2,1.68-1.14,3.5-2.08,5.44-2.78ZM7.48,9.18c.2-.22,.4-.43,.61-.64,.62-.35,1.25-.7,1.88-1.06,.19-.11,.42-.11,.61-.02,.63,.32,1.28,.66,1.93,.99,.22,.11,.35,.34,.35,.58,0,.71,.02,1.42,.07,2.13,.02,.25-.1,.48-.31,.61-.62,.37-1.23,.74-1.82,1.09-.19,.12-.42,.12-.61,.03-.75-.36-1.5-.72-2.24-1.06-.2-.09-.34-.29-.37-.51-.07-.69-.11-1.39-.1-2.08v-.06Zm-2.37,5.36c.45-.29,.93-.59,1.42-.89,.19-.11,.41-.13,.61-.04,.8,.37,1.61,.74,2.41,1.13,.16,.08,.29,.22,.34,.4,.21,.69,.46,1.38,.75,2.07,.12,.27,.03,.59-.21,.76-.33,.25-.64,.49-.94,.73-.19,.15-.45,.18-.68,.08-.88-.41-1.76-.81-2.65-1.2-.12-.05-.23-.14-.29-.26-.39-.66-.73-1.32-1.02-1.98-.13-.29-.02-.63,.25-.8h.01Z"/>
      <g>
        <path class="cls-3" d="M16.51,26.46c-1.93,0-3.5,2.14-3.5,4.79h7c0-2.64-1.57-4.79-3.5-4.79Z"/>
        <path class="cls-2" d="M34.73,26.46c-1.93,0-3.5,2.14-3.5,4.79h7c0-2.64-1.57-4.79-3.5-4.79Z"/>
      </g>
    </g>
  </g>
</svg>